# xmcd CD database file
#
# Track frame offsets:
#	150
#	13190
#	25782
#	35392
#	47785
#	61737
#	74632
#	87200
#	99722
#	112275
#	135607
#	154920
#	167122
#	177120
#	188280
#	200635
#	217910
#	226460
#	237842
#	250902
#
# Disc length: 3508 seconds
#
# Revision: 0
# Processed by: cddbd v1.5.1PL2 Copyright (c) Steve Scherf et al.
# Submitted via: CDex 1.51
#
DISCID=140db214
DTITLE=Monia - Suomalainen Jazz Vol3. 1948-1959
DYEAR=1900
DGENRE=Jazz
TTITLE0=Groovin' High - Kauko Vitamäen kvintetti
TTITLE1=Northwest Passage - Kauko Viitamäen kvintetti
TTITLE2=Basie Boogie - Pentti Aholan yhtye
TTITLE3=Flying Hom - Pentti Ahola Quintet
TTITLE4=Honeysuckle Bop - Erkki Toikan kvartetti
TTITLE5=105 Jump - Olli Miettisen yhtye
TTITLE6=Lullaby of Birdland - Manu Teittinen Ensemble
TTITLE7=Main Road 7 - Manu Teittinen Ensemble
TTITLE8=Stompin' at the Savoy - Kauko Tistolan kvartetti
TTITLE9=Fine and Dandy - Gusse Rössi Quintet
TTITLE10=Oh, Lady Be Good - Saey Sand ja Jyväskylä Yam
TTITLE11=How High the Moon - LL-kvintetti
TTITLE12=Sweet Georgia Brown - Vaasa Jive Club Band
TTITLE13=If I Could Be With You - Roxy
TTITLE14=Moonglow - Vaasa Jive Club Sextet
TTITLE15=I Can't Believe That You're in Love With Me - Kimmo Louhelainen yhtyeineen
TTITLE16=The World is Waiting for the Sunrise - Pelimannipojat
TTITLE17=Oh, Lady be Good - Pelimannipojat
TTITLE18=Indian Club - Pertti Metsärinteen yhtye
TTITLE19=Hayes - Pertti Metsärinteen yhtye
EXTD=
EXTT0=
EXTT1=
EXTT2=
EXTT3=
EXTT4=
EXTT5=
EXTT6=
EXTT7=
EXTT8=
EXTT9=
EXTT10=
EXTT11=
EXTT12=
EXTT13=
EXTT14=
EXTT15=
EXTT16=
EXTT17=
EXTT18=
EXTT19=
PLAYORDER=
